<svg width="120" height="24" viewBox="0 0 120 24" fill="none" xmlns="http://www.w3.org/2000/svg">
<rect x="43" width="24" height="24" rx="12" fill="#D8F6FF"/>
<mask id="mask0_3808_1638" style="mask-type:luminance" maskUnits="userSpaceOnUse" x="46" y="2" width="18" height="20">
<path d="M63.3681 2.5H46.5V21.5H63.3681V2.5Z" fill="white"/>
</mask>
<g mask="url(#mask0_3808_1638)">
<path d="M51.2911 20.8561L51.636 18.7646L50.8677 18.7475H47.1987L49.7484 3.31376C49.7564 3.26717 49.7821 3.22372 49.8197 3.19287C49.8573 3.16202 49.9054 3.14502 49.9555 3.14502H56.1419C58.1956 3.14502 59.6129 3.55301 60.3529 4.35829C60.6998 4.73606 60.9208 5.13084 61.0276 5.56528C61.1397 6.02112 61.1418 6.56573 61.0322 7.22998L61.0243 7.27847V7.70408L61.3712 7.89171C61.6634 8.03967 61.8956 8.20904 62.0736 8.40297C62.3705 8.72596 62.5623 9.13647 62.6434 9.62316C62.7272 10.1237 62.6996 10.7193 62.5623 11.3936C62.4041 12.1693 62.1481 12.8449 61.8026 13.3977C61.4847 13.9071 61.0797 14.3296 60.5989 14.657C60.1399 14.968 59.5945 15.2041 58.9778 15.3552C58.3803 15.5038 57.699 15.5787 56.9518 15.5787H56.4703C56.126 15.5787 55.7917 15.6971 55.5292 15.9093C55.266 16.1258 55.0919 16.4218 55.0385 16.7454L55.0022 16.9337L54.3928 20.6201L54.3651 20.7555C54.3579 20.7982 54.3453 20.8197 54.3269 20.8341C54.3104 20.8473 54.2866 20.8561 54.2635 20.8561H51.2911Z" fill="#253B80"/>
<path d="M61.7019 7.32715C61.6833 7.43986 61.6623 7.55507 61.6386 7.67344C60.8227 11.6721 58.0316 13.0535 54.4669 13.0535H52.6519C52.2159 13.0535 51.8486 13.3557 51.7807 13.7663L50.8514 19.3926L50.5882 20.9874C50.544 21.2568 50.7617 21.4999 51.0466 21.4999H54.2657C54.6469 21.4999 54.9708 21.2355 55.0308 20.8766L55.0624 20.7203L55.6685 17.0485L55.7074 16.847C55.7668 16.4869 56.0913 16.2224 56.4725 16.2224H56.9539C60.0728 16.2224 62.5144 15.0135 63.228 11.5154C63.5261 10.054 63.3717 8.83382 62.583 7.97566C62.3443 7.71689 62.0481 7.50219 61.7019 7.32715Z" fill="#179BD7"/>
<path d="M60.8476 7.00269C60.7229 6.96807 60.5944 6.93659 60.4624 6.90826C60.3298 6.88055 60.194 6.856 60.0542 6.8346C59.5648 6.75903 59.0286 6.72314 58.4542 6.72314H53.6053C53.486 6.72314 53.3725 6.74897 53.271 6.79556C53.0474 6.89818 52.8812 7.10029 52.841 7.34773L51.8095 13.5847L51.7798 13.7667C51.8477 13.3562 52.2151 13.054 52.651 13.054H54.466C58.0308 13.054 60.8218 11.6719 61.6377 7.67387C61.662 7.5555 61.6825 7.44029 61.701 7.32758C61.4945 7.22307 61.271 7.13366 61.0303 7.05748C60.9708 7.03858 60.9096 7.02034 60.8476 7.00269Z" fill="#222D65"/>
<path d="M52.8407 7.34743C52.8809 7.09999 53.0471 6.89788 53.2707 6.79589C53.3729 6.7493 53.4857 6.72348 53.605 6.72348H58.4539C59.0283 6.72348 59.5645 6.75936 60.0539 6.83493C60.1937 6.85633 60.3296 6.88089 60.4621 6.90859C60.594 6.93692 60.7226 6.9684 60.8473 7.00303C60.9092 7.02067 60.9706 7.03892 61.0306 7.05718C61.2713 7.13336 61.495 7.2234 61.7013 7.32728C61.944 5.84957 61.6994 4.84344 60.8624 3.93238C59.9398 2.9294 58.2745 2.5 56.1435 2.5H49.9572C49.5219 2.5 49.1506 2.80222 49.0834 3.21336L46.5066 18.8058C46.4558 19.1143 46.7051 19.3927 47.0309 19.3927H50.8502L51.8092 13.5844L52.8407 7.34743Z" fill="#253B80"/>
</g>
<rect x="22" width="24" height="24" rx="12" fill="#CDD4F9"/>
<path d="M33.9327 16.8053C33.9327 16.2852 34.3412 15.868 34.8503 15.868C35.3593 15.868 35.7677 16.2852 35.7677 16.8053C35.7677 17.3253 35.3593 17.7427 34.8503 17.7427C34.3412 17.7427 33.9327 17.3253 33.9327 16.8053ZM37.6656 16.8053C37.6656 16.2852 38.0741 15.868 38.5832 15.868C39.092 15.868 39.5005 16.2852 39.5005 16.8053C39.5005 17.3253 39.092 17.7427 38.5832 17.7427C38.0741 17.7427 37.6656 17.3253 37.6656 16.8053ZM29.0122 16.8053C29.0122 16.2852 29.4205 15.868 29.9298 15.868C30.4386 15.868 30.8471 16.2852 30.8471 16.8053C30.8471 17.3253 30.4386 17.7427 29.9298 17.7427C29.4205 17.7427 29.0122 17.3253 29.0122 16.8053ZM25.2793 16.8053C25.2793 16.2852 25.6877 15.868 26.1967 15.868C26.7059 15.868 27.1143 16.2852 27.1143 16.8053C27.1143 17.3253 26.7059 17.7427 26.1967 17.7427C25.6877 17.7427 25.2793 17.3253 25.2793 16.8053ZM32.8266 15.1489H32.0285V18.4295H32.8266V15.1489ZM27.108 18.4295H27.9061V15.1489H27.108V15.4122C26.8377 15.2197 26.511 15.1105 26.1591 15.1105C25.2416 15.1105 24.5 15.868 24.5 16.8053C24.5 17.7491 25.2416 18.5 26.1591 18.5C26.511 18.5 26.8377 18.3909 27.108 18.1983V18.4295ZM39.4943 18.4295H40.2924V15.1489H39.4943V15.4122C39.224 15.2197 38.8972 15.1105 38.5454 15.1105C37.6279 15.1105 36.8865 15.868 36.8865 16.8053C36.8865 17.7491 37.6279 18.5 38.5454 18.5C38.8972 18.5 39.224 18.3909 39.4943 18.1983V18.4295ZM40.5879 17.3637C40.6129 18.025 41.1659 18.4936 42.0898 18.4936C42.8438 18.4936 43.466 18.1597 43.466 17.4216C43.466 16.908 43.1832 16.6063 42.5296 16.4779L42.0206 16.3751C41.6938 16.311 41.4675 16.2467 41.4675 16.0477C41.4675 15.8296 41.6875 15.7333 41.964 15.7333C42.3663 15.7333 42.5296 15.9386 42.5421 16.1826H43.3467C43.3027 15.5405 42.7998 15.1105 41.9893 15.1105C41.1535 15.1105 40.6569 15.5791 40.6569 16.189C40.6569 16.9338 41.2477 17.0556 41.7568 17.1519L42.1778 17.229C42.4793 17.2868 42.6113 17.3767 42.6113 17.5564C42.6113 17.7168 42.4606 17.8773 42.1023 17.8773C41.5807 17.8773 41.411 17.6014 41.4047 17.3637H40.5879ZM30.8409 14.0319V15.4122C30.5706 15.2197 30.2438 15.1105 29.892 15.1105C28.9744 15.1105 28.2329 15.868 28.2329 16.8053C28.2329 17.7491 28.9744 18.5 29.892 18.5C30.2438 18.5 30.5706 18.3909 30.8409 18.1983V18.4295H31.639V14.0319H30.8409ZM35.7614 14.0319V15.4122C35.4911 15.2197 35.1644 15.1105 34.8126 15.1105C33.895 15.1105 33.1536 15.868 33.1536 16.8053C33.1536 17.7491 33.895 18.5 34.8126 18.5C35.1644 18.5 35.4911 18.3909 35.7614 18.1983V18.4295H36.5595V14.0319H35.7614ZM26.5737 13.0626L27.1143 14.0319H30.8409L29.364 11.4254L26.5737 13.0626ZM32.8266 14.8473V14.0319H35.7614L32.6318 8.49808L29.8353 10.1351L32.0285 14.0319V14.8473H32.8266ZM36.9492 14.0319H40.6822L35.8556 5.5L33.0656 7.14338L36.9492 14.0319Z" fill="black"/>
<g clip-path="url(#clip0_3808_1638)">
<rect width="24" height="24" rx="12" fill="white"/>
<path fill-rule="evenodd" clip-rule="evenodd" d="M18.7684 18.7431C16.9484 20.0851 14.3112 20.8001 12.0408 20.8001C8.85079 20.8001 5.98969 19.6231 3.82104 17.6634C3.65604 17.5094 3.80344 17.2993 4.00804 17.4192C6.34829 18.7816 9.24679 19.6011 12.2311 19.6011C14.3863 19.5911 16.5183 19.1552 18.5044 18.3185C18.8124 18.1876 19.0709 18.5198 18.7684 18.7431ZM19.5252 17.8774C19.2942 17.5804 17.9874 17.7371 17.4022 17.8059C17.2234 17.8279 17.1965 17.6722 17.3571 17.5606C18.4021 16.8291 20.1038 17.0397 20.3029 17.2856C20.502 17.5314 20.2512 19.2436 19.2744 20.0598C19.1242 20.1852 18.9812 20.1186 19.0544 19.952C19.2744 19.4042 19.7661 18.1755 19.5329 17.8774" fill="#FF9900"/>
<path fill-rule="evenodd" clip-rule="evenodd" d="M13.3335 10.8249C13.3335 11.7555 13.3572 12.5316 12.8869 13.3577C12.5019 14.0287 11.8969 14.4428 11.2342 14.4428C10.3173 14.4428 9.77996 13.7443 9.77996 12.7131C9.77996 10.6781 11.6038 10.3079 13.3341 10.3079L13.3335 10.8249ZM15.7431 16.6461C15.5852 16.7875 15.357 16.7974 15.1788 16.7033C14.3868 16.045 14.2416 15.7392 13.8082 15.1111C12.4981 16.4476 11.5675 16.8474 9.87126 16.8474C7.85936 16.8474 6.29736 15.6077 6.29736 13.1256C6.29736 11.1874 7.34511 9.86736 8.84386 9.22221C10.1402 8.65131 11.9514 8.55121 13.3346 8.39721V8.09471C13.3346 7.52711 13.3786 6.85501 13.0431 6.36496C12.7544 5.92496 12.1961 5.74346 11.7028 5.74346C10.7925 5.74346 9.98291 6.21096 9.78491 7.17786C9.74476 7.39786 9.58691 7.60466 9.36856 7.61456L7.04701 7.35496C6.85231 7.31096 6.63451 7.15366 6.69116 6.85996C7.22741 4.04671 9.76676 3.19971 12.0377 3.19971C13.1999 3.19971 14.7184 3.50881 15.6347 4.38881C16.7969 5.47396 16.6863 6.92156 16.6863 8.49731V12.2197C16.6863 13.3384 17.15 13.8285 17.5867 14.4335C17.7379 14.6535 17.7715 14.9065 17.5768 15.0682C16.9603 15.5894 16.3502 16.118 15.7464 16.6538L15.7431 16.6472" fill="#221F1F"/>
</g>
<path d="M74.3665 14.6023V8.70455H75.7045V14.6023H74.3665ZM72.0866 12.3224V10.9844H77.9844V12.3224H72.0866ZM86.8561 7.27273V16H85.2751V8.81108H85.224L83.1828 10.1151V8.66619L85.3518 7.27273H86.8561ZM92.508 16.1193C92.0904 16.1165 91.6827 16.044 91.285 15.902C90.8873 15.7571 90.5293 15.5227 90.2111 15.1989C89.8929 14.8722 89.6401 14.4389 89.4526 13.8991C89.2651 13.3565 89.1728 12.6847 89.1756 11.8835C89.1756 11.1364 89.2552 10.4702 89.4142 9.88494C89.5733 9.29972 89.802 8.8054 90.1003 8.40199C90.3986 7.99574 90.758 7.68608 91.1785 7.47301C91.6017 7.25994 92.0748 7.15341 92.5975 7.15341C93.1458 7.15341 93.6316 7.26136 94.0549 7.47727C94.481 7.69318 94.8248 7.98864 95.0861 8.36364C95.3475 8.7358 95.5094 9.15625 95.5719 9.625H94.0165C93.937 9.28977 93.7736 9.02273 93.5265 8.82386C93.2821 8.62216 92.9725 8.52131 92.5975 8.52131C91.9924 8.52131 91.5265 8.78409 91.1998 9.30966C90.8759 9.83523 90.7125 10.5568 90.7097 11.4744H90.7694C90.9086 11.2244 91.089 11.0099 91.3106 10.831C91.5321 10.652 91.7821 10.5142 92.0606 10.4176C92.3418 10.3182 92.6387 10.2685 92.9512 10.2685C93.4625 10.2685 93.9213 10.3906 94.3276 10.6349C94.7367 10.8793 95.0606 11.2159 95.2992 11.6449C95.5378 12.071 95.6557 12.5597 95.6529 13.1108C95.6557 13.6847 95.525 14.2003 95.2608 14.6577C94.9966 15.1122 94.6287 15.4702 94.1571 15.7315C93.6856 15.9929 93.1358 16.1222 92.508 16.1193ZM92.4995 14.8409C92.8091 14.8409 93.0861 14.7656 93.3304 14.6151C93.5748 14.4645 93.7679 14.2614 93.91 14.0057C94.052 13.75 94.1216 13.4631 94.1188 13.1449C94.1216 12.8324 94.0535 12.5497 93.9142 12.2969C93.7779 12.044 93.589 11.8437 93.3475 11.696C93.106 11.5483 92.8304 11.4744 92.5208 11.4744C92.2907 11.4744 92.0762 11.5185 91.8773 11.6065C91.6785 11.6946 91.5052 11.8168 91.3574 11.973C91.2097 12.1264 91.0932 12.3054 91.008 12.5099C90.9256 12.7116 90.883 12.9276 90.8802 13.1577C90.883 13.4616 90.954 13.7415 91.0932 13.9972C91.2324 14.2528 91.4242 14.4574 91.6685 14.6108C91.9128 14.7642 92.1898 14.8409 92.4995 14.8409Z" fill="#D8D8D8"/>
<defs>
<clipPath id="clip0_3808_1638">
<rect width="24" height="24" rx="12" fill="white"/>
</clipPath>
</defs>
</svg>
