<svg width="76" height="76" viewBox="0 0 76 76" fill="none" xmlns="http://www.w3.org/2000/svg">
<path d="M5.10986 53.1016C5.48764 45.0302 8.37158 38.0737 13.7399 32.2129C14.7426 33.2074 15.7112 34.1677 16.7081 35.1556C12.1597 40.1801 9.67154 46.1753 9.28335 53.0836C7.8944 53.0893 6.53479 53.095 5.10986 53.1016Z" fill="url(#paint0_linear_4265_14699)"/>
<path d="M58.2017 34.9435C59.1778 33.951 60.1199 32.9925 61.1292 31.9648C66.5884 37.8038 69.531 44.7424 69.9846 52.8214C68.5672 52.828 67.2275 52.8337 65.813 52.8393C65.3699 45.9604 62.8315 39.9604 58.2017 34.9435Z" fill="url(#paint1_linear_4265_14699)" stroke="url(#paint2_linear_4265_14699)" stroke-width="1.02251" stroke-miterlimit="10"/>
<path d="M59.1823 30.0687C58.172 31.067 57.2167 32.0103 56.2055 33.0105C53.8575 30.9448 51.1401 29.2523 48.1378 28.0296C45.1289 26.8049 41.9922 26.1533 38.7172 25.9885C38.7106 24.5972 38.7049 23.2561 38.6992 21.8184C46.534 22.1574 53.3386 24.9192 59.1823 30.0687Z" fill="url(#paint3_linear_4265_14699)"/>
<path d="M18.6697 33.2163C17.6765 32.2237 16.725 31.2737 15.7734 30.3228C20.1789 25.8486 28.1329 22.0801 36.1608 21.8594C36.1637 22.547 36.1665 23.2355 36.1703 23.9241C36.1732 24.5947 36.176 25.2662 36.1798 25.9907C29.4897 26.4188 23.6631 28.8018 18.6697 33.2163Z" fill="url(#paint4_linear_4265_14699)"/>
<path d="M5 53.2089L5.00473 53.099C5.38156 45.0551 8.29486 38.0048 13.6623 32.144L13.7352 32.0645L16.8511 35.154L16.7838 35.2278C12.26 40.2248 9.77091 46.2352 9.38651 53.0914L9.38083 53.1899L5 53.2089ZM13.7437 32.3647C8.48043 38.1459 5.61258 45.0864 5.21871 52.9986L9.18485 52.9816C9.58913 46.151 12.0707 40.1566 16.5642 35.1615L13.7437 32.3647Z" fill="url(#paint5_linear_4265_14699)"/>
<path d="M65.7139 52.9447L65.7072 52.8471C65.2651 45.9871 62.7134 39.9871 58.1234 35.0138L58.0562 34.9409L61.1295 31.8145L61.2033 31.894C66.6455 37.715 69.6336 44.754 70.0862 52.8159L70.0919 52.9257L65.7139 52.9447ZM58.344 34.9456C62.9028 39.9171 65.4478 45.901 65.9089 52.7354L69.8731 52.7183C69.4045 44.789 66.4618 37.858 61.1266 32.1156L58.344 34.9456Z" fill="url(#paint6_linear_4265_14699)"/>
<path d="M56.2099 33.154L56.137 33.0896C53.7624 31.0012 51.0584 29.3315 48.0987 28.1267C45.1532 26.9277 42.0827 26.2628 38.7121 26.0933L38.6137 26.0885L38.5947 21.7109L38.7036 21.7157C46.4891 22.0528 53.4027 24.8374 59.252 29.9916L59.3362 30.0655L56.2099 33.154ZM38.821 25.8915C42.1765 26.0705 45.2384 26.7392 48.1773 27.9354C51.1275 29.1363 53.8268 30.7966 56.2014 32.8708L59.0295 30.0759C53.2616 25.0249 46.4579 22.2849 38.803 21.9307L38.821 25.8915Z" fill="url(#paint7_linear_4265_14699)"/>
<path d="M18.6623 33.355L15.624 30.3195L15.6969 30.2456C20.4991 25.3689 28.7201 21.9555 36.1553 21.7509L36.2623 21.748L36.2813 26.0849L36.1837 26.0915C29.5296 26.5168 23.6595 28.9386 18.7361 33.2906L18.6623 33.355ZM15.9175 30.3185L18.6708 33.069C23.5894 28.7482 29.4435 26.333 36.0711 25.8898L36.054 21.963C28.7343 22.1941 20.6714 25.5403 15.9175 30.3185Z" fill="url(#paint8_linear_4265_14699)"/>
<path d="M54.4867 40.2461C54.293 40.5637 54.1954 40.7394 54.0831 40.9052C51.2117 45.126 48.3513 49.355 45.4615 53.5631C43.332 56.6642 39.1453 56.8938 36.8658 54.0642C34.6242 51.2821 35.6402 47.0785 38.9951 45.8012C43.9343 43.9203 48.9304 42.1893 53.9032 40.397C54.033 40.3502 54.1703 40.3263 54.4867 40.2461ZM41.8679 54.2988C43.9313 53.9326 45.3454 51.9255 44.9933 49.8644C44.646 47.8353 42.6001 46.4217 40.5274 46.7806C38.4712 47.1366 37.0462 49.1603 37.4047 51.2158C37.7603 53.2558 39.8017 54.6658 41.8679 54.2988Z" fill="url(#paint9_linear_4265_14699)" stroke="url(#paint10_linear_4265_14699)" stroke-width="1.15146" stroke-miterlimit="10"/>
<path d="M35.6666 51.657C35.5231 50.8673 35.5516 50.0469 35.7654 49.2554C36.211 47.6091 37.3758 46.3176 38.9619 45.714C42.4584 44.3825 46.0432 43.1053 49.5093 41.8694C50.9641 41.351 52.4189 40.8327 53.8718 40.3088C53.9577 40.278 54.0455 40.2572 54.1772 40.226C54.2541 40.208 54.3464 40.1853 54.4635 40.1561L54.6857 40.0994L54.5663 40.2955C54.4975 40.4087 54.4405 40.5044 54.3907 40.5873C54.2994 40.7401 54.2342 40.8496 54.1599 40.9583C53.3689 42.1206 52.5797 43.2837 51.7896 44.446C49.7455 47.4548 47.6325 50.5667 45.5383 53.6162C44.4845 55.1506 42.876 56.0696 41.1246 56.1356C39.4537 56.1992 37.8748 55.4649 36.7933 54.1221C36.2114 53.3987 35.8292 52.5475 35.6666 51.657ZM54.2903 40.3901C54.2656 40.3958 54.2427 40.4014 54.2208 40.4071C54.0945 40.4373 54.0113 40.4572 53.9355 40.4843C52.4826 41.0082 51.0269 41.5265 49.5721 42.0458C46.1069 43.2808 42.5238 44.558 39.0283 45.8885C37.4988 46.4706 36.3749 47.716 35.9454 49.3045C35.5052 50.9306 35.877 52.6882 36.939 54.0055C37.9835 55.3019 39.5063 56.01 41.1176 55.9497C42.8096 55.885 44.3642 54.9966 45.3845 53.511C47.4787 50.4615 49.5917 47.3505 51.6358 44.3417C52.4259 43.1786 53.216 42.0163 54.0061 40.854C54.0768 40.75 54.141 40.6423 54.2306 40.4922C54.2496 40.4591 54.2695 40.426 54.2903 40.3901ZM37.3184 51.2591C37.3165 51.25 37.3146 51.2399 37.3136 51.2307C37.1363 50.2121 37.3748 49.173 37.9848 48.3062C38.5957 47.4385 39.493 46.8638 40.5124 46.6877C41.54 46.5097 42.6278 46.7602 43.4975 47.3742C44.3525 47.9782 44.9218 48.8574 45.0861 49.8477C45.4497 51.9747 44.0139 54.0123 41.8855 54.3899C40.8514 54.5734 39.7986 54.3355 38.9206 53.7197C38.0666 53.1221 37.4982 52.2493 37.3184 51.2591ZM44.8946 49.8418C44.7262 48.9157 44.1921 48.0948 43.3887 47.5271C42.5595 46.9412 41.5223 46.7023 40.544 46.8717C39.574 47.0392 38.7197 47.587 38.1377 48.4133C37.5558 49.2395 37.3288 50.229 37.4975 51.1982C37.6633 52.1464 38.2068 52.9919 39.0267 53.5668C39.8641 54.1536 40.8674 54.3808 41.852 54.2059C43.8798 53.8456 45.2476 51.9047 44.9013 49.8793C44.8993 49.8674 44.8965 49.8546 44.8946 49.8418Z" fill="url(#paint11_linear_4265_14699)"/>
<path d="M41.8855 54.3899C44.0139 54.0123 45.4497 51.9747 45.0861 49.8477C44.9218 48.8574 44.3525 47.9782 43.4975 47.3742C42.6278 46.7602 41.54 46.5097 40.5124 46.6877C39.493 46.8638 38.5957 47.4385 37.9848 48.3062C37.3748 49.173 37.1363 50.2121 37.3136 51.2307C37.3146 51.2399 37.3165 51.25 37.3184 51.2591C37.4982 52.2493 38.0666 53.1221 38.9206 53.7197C39.7986 54.3355 40.8514 54.5734 41.8855 54.3899ZM41.8855 54.3899L41.8692 54.2974M35.6666 51.657C35.5231 50.8673 35.5516 50.0469 35.7654 49.2554C36.211 47.6091 37.3758 46.3176 38.9619 45.714C42.4584 44.3825 46.0432 43.1053 49.5093 41.8694C50.9641 41.351 52.4189 40.8327 53.8718 40.3088C53.9577 40.278 54.0455 40.2572 54.1772 40.226C54.2541 40.208 54.3464 40.1853 54.4635 40.1561L54.6857 40.0994L54.5663 40.2955C54.4975 40.4087 54.4405 40.5044 54.3907 40.5873C54.2994 40.7401 54.2342 40.8496 54.1599 40.9583C53.3689 42.1206 52.5797 43.2837 51.7896 44.446C49.7455 47.4548 47.6325 50.5667 45.5383 53.6162C44.4845 55.1506 42.876 56.0696 41.1246 56.1356C39.4537 56.1992 37.8748 55.4649 36.7933 54.1221C36.2114 53.3987 35.8292 52.5475 35.6666 51.657ZM54.2903 40.3901C54.2656 40.3958 54.2427 40.4014 54.2208 40.4071C54.0945 40.4373 54.0113 40.4572 53.9355 40.4843C52.4826 41.0082 51.0269 41.5265 49.5721 42.0458C46.1069 43.2808 42.5238 44.558 39.0283 45.8885C37.4988 46.4706 36.3749 47.716 35.9454 49.3045C35.5052 50.9306 35.877 52.6882 36.939 54.0055C37.9835 55.3019 39.5063 56.01 41.1176 55.9497C42.8096 55.885 44.3642 54.9966 45.3845 53.511C47.4787 50.4615 49.5917 47.3505 51.6358 44.3417C52.4259 43.1785 53.216 42.0163 54.0061 40.854C54.0768 40.75 54.141 40.6423 54.2306 40.4922C54.2496 40.4591 54.2695 40.426 54.2903 40.3901ZM44.8946 49.8418C44.7262 48.9157 44.1921 48.0948 43.3887 47.5271C42.5595 46.9412 41.5223 46.7023 40.544 46.8717C39.574 47.0392 38.7197 47.587 38.1377 48.4133C37.5558 49.2395 37.3288 50.229 37.4975 51.1982C37.6633 52.1464 38.2068 52.9919 39.0267 53.5668C39.8641 54.1536 40.8674 54.3808 41.852 54.2059C43.8798 53.8456 45.2476 51.9047 44.9013 49.8793C44.8993 49.8674 44.8965 49.8546 44.8946 49.8418Z" stroke="url(#paint12_linear_4265_14699)" stroke-width="1.15146" stroke-miterlimit="10"/>
<path d="M39.5248 50.845C39.3641 49.9627 39.9666 49.0713 40.8568 48.886C41.284 48.7968 41.7475 48.8896 42.1288 49.1397C42.5082 49.3889 42.7769 49.7755 42.8645 50.201C42.9529 50.6255 42.8638 51.0725 42.6147 51.4519C42.3638 51.8331 41.9691 52.1026 41.5327 52.192C40.616 52.3792 39.719 51.7911 39.5315 50.8816C39.5287 50.8688 39.5268 50.8569 39.5248 50.845ZM42.6881 50.271C42.6862 50.26 42.6843 50.249 42.6815 50.2381C42.6034 49.8611 42.3644 49.5174 42.0264 49.2953C41.6866 49.0724 41.2745 48.9893 40.8948 49.0681C40.0916 49.2353 39.5508 50.0512 39.7145 50.8427C39.8782 51.6378 40.6932 52.1716 41.4947 52.0071C41.8826 51.9282 42.2335 51.6874 42.4572 51.3476C42.6737 51.0207 42.7551 50.6398 42.6881 50.271Z" fill="url(#paint13_linear_4265_14699)" stroke="url(#paint14_linear_4265_14699)" stroke-width="1.15146" stroke-miterlimit="10"/>
<path d="M41.5164 52.0951C40.6582 52.27 39.8008 51.709 39.6257 50.8572C39.4515 50.009 40.0213 49.1507 40.8785 48.973C41.7229 48.7973 42.6015 49.3728 42.7756 50.2155C42.9498 51.0573 42.3718 51.9202 41.5164 52.0951Z" fill="url(#paint15_linear_4265_14699)" stroke="url(#paint16_linear_4265_14699)" stroke-width="1.15146" stroke-miterlimit="10"/>
<g opacity="0.7">
<g filter="url(#filter0_dddddd_4265_14699)">
<path d="M8.45365 24.4871C7.97951 24.4871 7.97951 24.0605 7.97951 24.0605C7.97951 24.4871 7.50537 24.4871 7.50537 24.4871C7.97951 24.4871 7.97951 24.9136 7.97951 24.9136C7.97951 24.4871 8.45365 24.4871 8.45365 24.4871Z" fill="#EFE78B"/>
</g>
<g filter="url(#filter1_dddddd_4265_14699)">
<path d="M7.98037 24.0598C7.98037 24.0598 7.98037 24.4863 8.45451 24.4863L7.98037 24.0598ZM7.98037 24.0598C7.98037 24.4863 7.50623 24.4863 7.50623 24.4863L7.98037 24.0598ZM7.98037 24.0598V23.9531V24.0598ZM8.45451 24.4863C8.45451 24.4863 7.98037 24.4863 7.98037 24.9128L8.45451 24.4863ZM8.45451 24.4863H8.57304H8.45451ZM7.98037 24.9128C7.98037 24.9128 7.98037 24.4863 7.50623 24.4863L7.98037 24.9128ZM7.98037 24.9128V25.0194V24.9128ZM7.50623 24.4863H7.3877H7.50623Z" fill="#EFE78B"/>
<path d="M7.98037 24.0598C7.98037 24.0598 7.98037 24.4863 8.45451 24.4863M7.98037 24.0598C7.98037 24.4863 7.50623 24.4863 7.50623 24.4863M7.98037 24.0598V23.9531M8.45451 24.4863C8.45451 24.4863 7.98037 24.4863 7.98037 24.9128M8.45451 24.4863H8.57304M7.50623 24.4863C7.98037 24.4863 7.98037 24.9128 7.98037 24.9128M7.50623 24.4863H7.3877M7.98037 24.9128V25.0194" stroke="#EFE78B" stroke-width="0.0874812" stroke-linecap="round" stroke-linejoin="round"/>
</g>
</g>
<g filter="url(#filter2_dddddd_4265_14699)">
<path d="M62.3291 10.4265C61.855 10.4265 61.855 10 61.855 10C61.855 10.4265 61.3809 10.4265 61.3809 10.4265C61.855 10.4265 61.855 10.8531 61.855 10.8531C61.855 10.4265 62.3291 10.4265 62.3291 10.4265Z" fill="#EFE78B"/>
</g>
<defs>
<filter id="filter0_dddddd_4265_14699" x="2.97863" y="19.5338" width="10.0017" height="9.90699" filterUnits="userSpaceOnUse" color-interpolation-filters="sRGB">
<feFlood flood-opacity="0" result="BackgroundImageFix"/>
<feColorMatrix in="SourceAlpha" type="matrix" values="0 0 0 0 0 0 0 0 0 0 0 0 0 0 0 0 0 0 127 0" result="hardAlpha"/>
<feOffset/>
<feGaussianBlur stdDeviation="0.0538898"/>
<feColorMatrix type="matrix" values="0 0 0 0 0.870588 0 0 0 0 0.768627 0 0 0 0 0.247059 0 0 0 1 0"/>
<feBlend mode="normal" in2="BackgroundImageFix" result="effect1_dropShadow_4265_14699"/>
<feColorMatrix in="SourceAlpha" type="matrix" values="0 0 0 0 0 0 0 0 0 0 0 0 0 0 0 0 0 0 127 0" result="hardAlpha"/>
<feOffset/>
<feGaussianBlur stdDeviation="0.10778"/>
<feColorMatrix type="matrix" values="0 0 0 0 0.870588 0 0 0 0 0.768627 0 0 0 0 0.247059 0 0 0 1 0"/>
<feBlend mode="normal" in2="effect1_dropShadow_4265_14699" result="effect2_dropShadow_4265_14699"/>
<feColorMatrix in="SourceAlpha" type="matrix" values="0 0 0 0 0 0 0 0 0 0 0 0 0 0 0 0 0 0 127 0" result="hardAlpha"/>
<feOffset/>
<feGaussianBlur stdDeviation="0.377228"/>
<feColorMatrix type="matrix" values="0 0 0 0 0.870588 0 0 0 0 0.768627 0 0 0 0 0.247059 0 0 0 1 0"/>
<feBlend mode="normal" in2="effect2_dropShadow_4265_14699" result="effect3_dropShadow_4265_14699"/>
<feColorMatrix in="SourceAlpha" type="matrix" values="0 0 0 0 0 0 0 0 0 0 0 0 0 0 0 0 0 0 127 0" result="hardAlpha"/>
<feOffset/>
<feGaussianBlur stdDeviation="0.754457"/>
<feColorMatrix type="matrix" values="0 0 0 0 0.870588 0 0 0 0 0.768627 0 0 0 0 0.247059 0 0 0 1 0"/>
<feBlend mode="normal" in2="effect3_dropShadow_4265_14699" result="effect4_dropShadow_4265_14699"/>
<feColorMatrix in="SourceAlpha" type="matrix" values="0 0 0 0 0 0 0 0 0 0 0 0 0 0 0 0 0 0 127 0" result="hardAlpha"/>
<feOffset/>
<feGaussianBlur stdDeviation="1.29335"/>
<feColorMatrix type="matrix" values="0 0 0 0 0.870588 0 0 0 0 0.768627 0 0 0 0 0.247059 0 0 0 1 0"/>
<feBlend mode="normal" in2="effect4_dropShadow_4265_14699" result="effect5_dropShadow_4265_14699"/>
<feColorMatrix in="SourceAlpha" type="matrix" values="0 0 0 0 0 0 0 0 0 0 0 0 0 0 0 0 0 0 127 0" result="hardAlpha"/>
<feOffset/>
<feGaussianBlur stdDeviation="2.26337"/>
<feColorMatrix type="matrix" values="0 0 0 0 0.870588 0 0 0 0 0.768627 0 0 0 0 0.247059 0 0 0 1 0"/>
<feBlend mode="normal" in2="effect5_dropShadow_4265_14699" result="effect6_dropShadow_4265_14699"/>
<feBlend mode="normal" in="SourceGraphic" in2="effect6_dropShadow_4265_14699" result="shape"/>
</filter>
<filter id="filter1_dddddd_4265_14699" x="1.68533" y="18.2517" width="12.5898" height="12.4692" filterUnits="userSpaceOnUse" color-interpolation-filters="sRGB">
<feFlood flood-opacity="0" result="BackgroundImageFix"/>
<feColorMatrix in="SourceAlpha" type="matrix" values="0 0 0 0 0 0 0 0 0 0 0 0 0 0 0 0 0 0 127 0" result="hardAlpha"/>
<feOffset/>
<feGaussianBlur stdDeviation="0.0673622"/>
<feColorMatrix type="matrix" values="0 0 0 0 0.870588 0 0 0 0 0.768627 0 0 0 0 0.247059 0 0 0 1 0"/>
<feBlend mode="normal" in2="BackgroundImageFix" result="effect1_dropShadow_4265_14699"/>
<feColorMatrix in="SourceAlpha" type="matrix" values="0 0 0 0 0 0 0 0 0 0 0 0 0 0 0 0 0 0 127 0" result="hardAlpha"/>
<feOffset/>
<feGaussianBlur stdDeviation="0.134724"/>
<feColorMatrix type="matrix" values="0 0 0 0 0.870588 0 0 0 0 0.768627 0 0 0 0 0.247059 0 0 0 1 0"/>
<feBlend mode="normal" in2="effect1_dropShadow_4265_14699" result="effect2_dropShadow_4265_14699"/>
<feColorMatrix in="SourceAlpha" type="matrix" values="0 0 0 0 0 0 0 0 0 0 0 0 0 0 0 0 0 0 127 0" result="hardAlpha"/>
<feOffset/>
<feGaussianBlur stdDeviation="0.471535"/>
<feColorMatrix type="matrix" values="0 0 0 0 0.870588 0 0 0 0 0.768627 0 0 0 0 0.247059 0 0 0 1 0"/>
<feBlend mode="normal" in2="effect2_dropShadow_4265_14699" result="effect3_dropShadow_4265_14699"/>
<feColorMatrix in="SourceAlpha" type="matrix" values="0 0 0 0 0 0 0 0 0 0 0 0 0 0 0 0 0 0 127 0" result="hardAlpha"/>
<feOffset/>
<feGaussianBlur stdDeviation="0.943071"/>
<feColorMatrix type="matrix" values="0 0 0 0 0.870588 0 0 0 0 0.768627 0 0 0 0 0.247059 0 0 0 1 0"/>
<feBlend mode="normal" in2="effect3_dropShadow_4265_14699" result="effect4_dropShadow_4265_14699"/>
<feColorMatrix in="SourceAlpha" type="matrix" values="0 0 0 0 0 0 0 0 0 0 0 0 0 0 0 0 0 0 127 0" result="hardAlpha"/>
<feOffset/>
<feGaussianBlur stdDeviation="1.61669"/>
<feColorMatrix type="matrix" values="0 0 0 0 0.870588 0 0 0 0 0.768627 0 0 0 0 0.247059 0 0 0 1 0"/>
<feBlend mode="normal" in2="effect4_dropShadow_4265_14699" result="effect5_dropShadow_4265_14699"/>
<feColorMatrix in="SourceAlpha" type="matrix" values="0 0 0 0 0 0 0 0 0 0 0 0 0 0 0 0 0 0 127 0" result="hardAlpha"/>
<feOffset/>
<feGaussianBlur stdDeviation="2.82921"/>
<feColorMatrix type="matrix" values="0 0 0 0 0.870588 0 0 0 0 0.768627 0 0 0 0 0.247059 0 0 0 1 0"/>
<feBlend mode="normal" in2="effect5_dropShadow_4265_14699" result="effect6_dropShadow_4265_14699"/>
<feBlend mode="normal" in="SourceGraphic" in2="effect6_dropShadow_4265_14699" result="shape"/>
</filter>
<filter id="filter2_dddddd_4265_14699" x="56.8541" y="5.47326" width="10.0017" height="9.90699" filterUnits="userSpaceOnUse" color-interpolation-filters="sRGB">
<feFlood flood-opacity="0" result="BackgroundImageFix"/>
<feColorMatrix in="SourceAlpha" type="matrix" values="0 0 0 0 0 0 0 0 0 0 0 0 0 0 0 0 0 0 127 0" result="hardAlpha"/>
<feOffset/>
<feGaussianBlur stdDeviation="0.0538898"/>
<feColorMatrix type="matrix" values="0 0 0 0 0.870588 0 0 0 0 0.768627 0 0 0 0 0.247059 0 0 0 1 0"/>
<feBlend mode="normal" in2="BackgroundImageFix" result="effect1_dropShadow_4265_14699"/>
<feColorMatrix in="SourceAlpha" type="matrix" values="0 0 0 0 0 0 0 0 0 0 0 0 0 0 0 0 0 0 127 0" result="hardAlpha"/>
<feOffset/>
<feGaussianBlur stdDeviation="0.10778"/>
<feColorMatrix type="matrix" values="0 0 0 0 0.870588 0 0 0 0 0.768627 0 0 0 0 0.247059 0 0 0 1 0"/>
<feBlend mode="normal" in2="effect1_dropShadow_4265_14699" result="effect2_dropShadow_4265_14699"/>
<feColorMatrix in="SourceAlpha" type="matrix" values="0 0 0 0 0 0 0 0 0 0 0 0 0 0 0 0 0 0 127 0" result="hardAlpha"/>
<feOffset/>
<feGaussianBlur stdDeviation="0.377228"/>
<feColorMatrix type="matrix" values="0 0 0 0 0.870588 0 0 0 0 0.768627 0 0 0 0 0.247059 0 0 0 1 0"/>
<feBlend mode="normal" in2="effect2_dropShadow_4265_14699" result="effect3_dropShadow_4265_14699"/>
<feColorMatrix in="SourceAlpha" type="matrix" values="0 0 0 0 0 0 0 0 0 0 0 0 0 0 0 0 0 0 127 0" result="hardAlpha"/>
<feOffset/>
<feGaussianBlur stdDeviation="0.754457"/>
<feColorMatrix type="matrix" values="0 0 0 0 0.870588 0 0 0 0 0.768627 0 0 0 0 0.247059 0 0 0 1 0"/>
<feBlend mode="normal" in2="effect3_dropShadow_4265_14699" result="effect4_dropShadow_4265_14699"/>
<feColorMatrix in="SourceAlpha" type="matrix" values="0 0 0 0 0 0 0 0 0 0 0 0 0 0 0 0 0 0 127 0" result="hardAlpha"/>
<feOffset/>
<feGaussianBlur stdDeviation="1.29335"/>
<feColorMatrix type="matrix" values="0 0 0 0 0.870588 0 0 0 0 0.768627 0 0 0 0 0.247059 0 0 0 1 0"/>
<feBlend mode="normal" in2="effect4_dropShadow_4265_14699" result="effect5_dropShadow_4265_14699"/>
<feColorMatrix in="SourceAlpha" type="matrix" values="0 0 0 0 0 0 0 0 0 0 0 0 0 0 0 0 0 0 127 0" result="hardAlpha"/>
<feOffset/>
<feGaussianBlur stdDeviation="2.26337"/>
<feColorMatrix type="matrix" values="0 0 0 0 0.870588 0 0 0 0 0.768627 0 0 0 0 0.247059 0 0 0 1 0"/>
<feBlend mode="normal" in2="effect5_dropShadow_4265_14699" result="effect6_dropShadow_4265_14699"/>
<feBlend mode="normal" in="SourceGraphic" in2="effect6_dropShadow_4265_14699" result="shape"/>
</filter>
<linearGradient id="paint0_linear_4265_14699" x1="108.248" y1="-7.76018" x2="-15.5866" y2="56.7247" gradientUnits="userSpaceOnUse">
<stop stop-color="#FFC059"/>
<stop offset="0.4907" stop-color="#FED793" stop-opacity="0.4"/>
<stop offset="1" stop-opacity="0"/>
</linearGradient>
<linearGradient id="paint1_linear_4265_14699" x1="61.6412" y1="15.2075" x2="68.0289" y2="89.5979" gradientUnits="userSpaceOnUse">
<stop stop-color="#B98B3C"/>
<stop offset="0.0308" stop-color="#BC9040"/>
<stop offset="0.0683" stop-color="#C59F4D"/>
<stop offset="0.1091" stop-color="#D3B762"/>
<stop offset="0.152" stop-color="#E8D97F"/>
<stop offset="0.1775" stop-color="#F6F194"/>
<stop offset="0.2608" stop-color="#F4EE91"/>
<stop offset="0.3194" stop-color="#EFE589"/>
<stop offset="0.3705" stop-color="#E5D57C"/>
<stop offset="0.4173" stop-color="#D8BF69"/>
<stop offset="0.4607" stop-color="#C8A351"/>
<stop offset="0.4911" stop-color="#B98B3C"/>
<stop offset="0.5261" stop-color="#C29A49"/>
<stop offset="0.6417" stop-color="#DEC971"/>
<stop offset="0.7304" stop-color="#EFE68A"/>
<stop offset="0.7811" stop-color="#F6F194"/>
<stop offset="0.805" stop-color="#E3D279"/>
<stop offset="0.8314" stop-color="#D4B863"/>
<stop offset="0.8605" stop-color="#C8A452"/>
<stop offset="0.8935" stop-color="#C09645"/>
<stop offset="0.9335" stop-color="#BB8D3E"/>
<stop offset="1" stop-color="#B98B3C"/>
</linearGradient>
<linearGradient id="paint2_linear_4265_14699" x1="67.5491" y1="41.3612" x2="61.3727" y2="44.5775" gradientUnits="userSpaceOnUse">
<stop stop-color="#B98B3C"/>
<stop offset="0.0308" stop-color="#BC9040"/>
<stop offset="0.0683" stop-color="#C59F4D"/>
<stop offset="0.1091" stop-color="#D3B762"/>
<stop offset="0.152" stop-color="#E8D97F"/>
<stop offset="0.1775" stop-color="#F6F194"/>
<stop offset="0.2608" stop-color="#F4EE91"/>
<stop offset="0.3194" stop-color="#EFE589"/>
<stop offset="0.3705" stop-color="#E5D57C"/>
<stop offset="0.4173" stop-color="#D8BF69"/>
<stop offset="0.4607" stop-color="#C8A351"/>
<stop offset="0.4911" stop-color="#B98B3C"/>
<stop offset="0.5261" stop-color="#C29A49"/>
<stop offset="0.6417" stop-color="#DEC971"/>
<stop offset="0.7304" stop-color="#EFE68A"/>
<stop offset="0.7811" stop-color="#F6F194"/>
<stop offset="0.805" stop-color="#E3D279"/>
<stop offset="0.8314" stop-color="#D4B863"/>
<stop offset="0.8605" stop-color="#C8A452"/>
<stop offset="0.8935" stop-color="#C09645"/>
<stop offset="0.9335" stop-color="#BB8D3E"/>
<stop offset="1" stop-color="#B98B3C"/>
</linearGradient>
<linearGradient id="paint3_linear_4265_14699" x1="109.676" y1="-5.01016" x2="-14.1577" y2="59.4748" gradientUnits="userSpaceOnUse">
<stop stop-color="#FFC059"/>
<stop offset="0.4907" stop-color="#FED793" stop-opacity="0.4"/>
<stop offset="1" stop-opacity="0"/>
</linearGradient>
<linearGradient id="paint4_linear_4265_14699" x1="105.125" y1="-13.7477" x2="-18.7088" y2="50.7372" gradientUnits="userSpaceOnUse">
<stop stop-color="#FFC059"/>
<stop offset="0.4907" stop-color="#FED793" stop-opacity="0.4"/>
<stop offset="1" stop-opacity="0"/>
</linearGradient>
<linearGradient id="paint5_linear_4265_14699" x1="10.9263" y1="32.0641" x2="10.9263" y2="53.2085" gradientUnits="userSpaceOnUse">
<stop stop-color="white"/>
<stop offset="1" stop-opacity="0"/>
</linearGradient>
<linearGradient id="paint6_linear_4265_14699" x1="64.075" y1="31.8141" x2="64.075" y2="52.9446" gradientUnits="userSpaceOnUse">
<stop stop-color="white"/>
<stop offset="1" stop-opacity="0"/>
</linearGradient>
<linearGradient id="paint7_linear_4265_14699" x1="48.9646" y1="21.7115" x2="48.9646" y2="33.1543" gradientUnits="userSpaceOnUse">
<stop stop-color="white"/>
<stop offset="1" stop-opacity="0"/>
</linearGradient>
<linearGradient id="paint8_linear_4265_14699" x1="25.9524" y1="21.7481" x2="25.9524" y2="33.3547" gradientUnits="userSpaceOnUse">
<stop stop-color="white"/>
<stop offset="1" stop-opacity="0"/>
</linearGradient>
<linearGradient id="paint9_linear_4265_14699" x1="94.5162" y1="110.046" x2="17.7195" y2="11.1554" gradientUnits="userSpaceOnUse">
<stop stop-color="#B98B3C"/>
<stop offset="0.0308" stop-color="#BC9040"/>
<stop offset="0.0683" stop-color="#C59F4D"/>
<stop offset="0.1091" stop-color="#D3B762"/>
<stop offset="0.152" stop-color="#E8D97F"/>
<stop offset="0.1775" stop-color="#F6F194"/>
<stop offset="0.2608" stop-color="#F4EE91"/>
<stop offset="0.3194" stop-color="#EFE589"/>
<stop offset="0.3705" stop-color="#E5D57C"/>
<stop offset="0.4173" stop-color="#D8BF69"/>
<stop offset="0.4607" stop-color="#C8A351"/>
<stop offset="0.4911" stop-color="#B98B3C"/>
<stop offset="0.5261" stop-color="#C29A49"/>
<stop offset="0.6417" stop-color="#DEC971"/>
<stop offset="0.7304" stop-color="#EFE68A"/>
<stop offset="0.7811" stop-color="#F6F194"/>
<stop offset="0.805" stop-color="#E3D279"/>
<stop offset="0.8314" stop-color="#D4B863"/>
<stop offset="0.8605" stop-color="#C8A452"/>
<stop offset="0.8935" stop-color="#C09645"/>
<stop offset="0.9335" stop-color="#BB8D3E"/>
<stop offset="1" stop-color="#B98B3C"/>
</linearGradient>
<linearGradient id="paint10_linear_4265_14699" x1="35.5586" y1="48.2098" x2="54.7421" y2="48.0627" gradientUnits="userSpaceOnUse">
<stop stop-color="#B98B3C"/>
<stop offset="0.0308" stop-color="#BC9040"/>
<stop offset="0.0683" stop-color="#C59F4D"/>
<stop offset="0.1091" stop-color="#D3B762"/>
<stop offset="0.152" stop-color="#E8D97F"/>
<stop offset="0.1775" stop-color="#F6F194"/>
<stop offset="0.2608" stop-color="#F4EE91"/>
<stop offset="0.3194" stop-color="#EFE589"/>
<stop offset="0.3705" stop-color="#E5D57C"/>
<stop offset="0.4173" stop-color="#D8BF69"/>
<stop offset="0.4607" stop-color="#C8A351"/>
<stop offset="0.4911" stop-color="#B98B3C"/>
<stop offset="0.5261" stop-color="#C29A49"/>
<stop offset="0.6417" stop-color="#DEC971"/>
<stop offset="0.7304" stop-color="#EFE68A"/>
<stop offset="0.7811" stop-color="#F6F194"/>
<stop offset="0.805" stop-color="#E3D279"/>
<stop offset="0.8314" stop-color="#D4B863"/>
<stop offset="0.8605" stop-color="#C8A452"/>
<stop offset="0.8935" stop-color="#C09645"/>
<stop offset="0.9335" stop-color="#BB8D3E"/>
<stop offset="1" stop-color="#B98B3C"/>
</linearGradient>
<linearGradient id="paint11_linear_4265_14699" x1="55.8781" y1="46.6822" x2="35.4325" y2="50.4071" gradientUnits="userSpaceOnUse">
<stop stop-color="#B98B3C"/>
<stop offset="0.0308" stop-color="#BC9040"/>
<stop offset="0.0683" stop-color="#C59F4D"/>
<stop offset="0.1091" stop-color="#D3B762"/>
<stop offset="0.152" stop-color="#E8D97F"/>
<stop offset="0.1775" stop-color="#F6F194"/>
<stop offset="0.2608" stop-color="#F4EE91"/>
<stop offset="0.3194" stop-color="#EFE589"/>
<stop offset="0.3705" stop-color="#E5D57C"/>
<stop offset="0.4173" stop-color="#D8BF69"/>
<stop offset="0.4607" stop-color="#C8A351"/>
<stop offset="0.4911" stop-color="#B98B3C"/>
<stop offset="0.5261" stop-color="#C29A49"/>
<stop offset="0.6417" stop-color="#DEC971"/>
<stop offset="0.7304" stop-color="#EFE68A"/>
<stop offset="0.7811" stop-color="#F6F194"/>
<stop offset="0.805" stop-color="#E3D279"/>
<stop offset="0.8314" stop-color="#D4B863"/>
<stop offset="0.8605" stop-color="#C8A452"/>
<stop offset="0.8935" stop-color="#C09645"/>
<stop offset="0.9335" stop-color="#BB8D3E"/>
<stop offset="1" stop-color="#B98B3C"/>
</linearGradient>
<linearGradient id="paint12_linear_4265_14699" x1="35.4673" y1="48.1839" x2="54.9426" y2="48.0345" gradientUnits="userSpaceOnUse">
<stop stop-color="#B98B3C"/>
<stop offset="0.0308" stop-color="#BC9040"/>
<stop offset="0.0683" stop-color="#C59F4D"/>
<stop offset="0.1091" stop-color="#D3B762"/>
<stop offset="0.152" stop-color="#E8D97F"/>
<stop offset="0.1775" stop-color="#F6F194"/>
<stop offset="0.2608" stop-color="#F4EE91"/>
<stop offset="0.3194" stop-color="#EFE589"/>
<stop offset="0.3705" stop-color="#E5D57C"/>
<stop offset="0.4173" stop-color="#D8BF69"/>
<stop offset="0.4607" stop-color="#C8A351"/>
<stop offset="0.4911" stop-color="#B98B3C"/>
<stop offset="0.5261" stop-color="#C29A49"/>
<stop offset="0.6417" stop-color="#DEC971"/>
<stop offset="0.7304" stop-color="#EFE68A"/>
<stop offset="0.7811" stop-color="#F6F194"/>
<stop offset="0.805" stop-color="#E3D279"/>
<stop offset="0.8314" stop-color="#D4B863"/>
<stop offset="0.8605" stop-color="#C8A452"/>
<stop offset="0.8935" stop-color="#C09645"/>
<stop offset="0.9335" stop-color="#BB8D3E"/>
<stop offset="1" stop-color="#B98B3C"/>
</linearGradient>
<linearGradient id="paint13_linear_4265_14699" x1="42.8619" y1="50.2228" x2="39.5156" y2="50.8324" gradientUnits="userSpaceOnUse">
<stop stop-color="#B98B3C"/>
<stop offset="0.0308" stop-color="#BC9040"/>
<stop offset="0.0683" stop-color="#C59F4D"/>
<stop offset="0.1091" stop-color="#D3B762"/>
<stop offset="0.152" stop-color="#E8D97F"/>
<stop offset="0.1775" stop-color="#F6F194"/>
<stop offset="0.2608" stop-color="#F4EE91"/>
<stop offset="0.3194" stop-color="#EFE589"/>
<stop offset="0.3705" stop-color="#E5D57C"/>
<stop offset="0.4173" stop-color="#D8BF69"/>
<stop offset="0.4607" stop-color="#C8A351"/>
<stop offset="0.4911" stop-color="#B98B3C"/>
<stop offset="0.5261" stop-color="#C29A49"/>
<stop offset="0.6417" stop-color="#DEC971"/>
<stop offset="0.7304" stop-color="#EFE68A"/>
<stop offset="0.7811" stop-color="#F6F194"/>
<stop offset="0.805" stop-color="#E3D279"/>
<stop offset="0.8314" stop-color="#D4B863"/>
<stop offset="0.8605" stop-color="#C8A452"/>
<stop offset="0.8935" stop-color="#C09645"/>
<stop offset="0.9335" stop-color="#BB8D3E"/>
<stop offset="1" stop-color="#B98B3C"/>
</linearGradient>
<linearGradient id="paint14_linear_4265_14699" x1="39.4074" y1="50.5521" x2="42.9887" y2="50.5246" gradientUnits="userSpaceOnUse">
<stop stop-color="#B98B3C"/>
<stop offset="0.0308" stop-color="#BC9040"/>
<stop offset="0.0683" stop-color="#C59F4D"/>
<stop offset="0.1091" stop-color="#D3B762"/>
<stop offset="0.152" stop-color="#E8D97F"/>
<stop offset="0.1775" stop-color="#F6F194"/>
<stop offset="0.2608" stop-color="#F4EE91"/>
<stop offset="0.3194" stop-color="#EFE589"/>
<stop offset="0.3705" stop-color="#E5D57C"/>
<stop offset="0.4173" stop-color="#D8BF69"/>
<stop offset="0.4607" stop-color="#C8A351"/>
<stop offset="0.4911" stop-color="#B98B3C"/>
<stop offset="0.5261" stop-color="#C29A49"/>
<stop offset="0.6417" stop-color="#DEC971"/>
<stop offset="0.7304" stop-color="#EFE68A"/>
<stop offset="0.7811" stop-color="#F6F194"/>
<stop offset="0.805" stop-color="#E3D279"/>
<stop offset="0.8314" stop-color="#D4B863"/>
<stop offset="0.8605" stop-color="#C8A452"/>
<stop offset="0.8935" stop-color="#C09645"/>
<stop offset="0.9335" stop-color="#BB8D3E"/>
<stop offset="1" stop-color="#B98B3C"/>
</linearGradient>
<linearGradient id="paint15_linear_4265_14699" x1="90.0849" y1="113.487" x2="13.2874" y2="14.5948" gradientUnits="userSpaceOnUse">
<stop stop-color="#B98B3C"/>
<stop offset="0.0308" stop-color="#BC9040"/>
<stop offset="0.0683" stop-color="#C59F4D"/>
<stop offset="0.1091" stop-color="#D3B762"/>
<stop offset="0.152" stop-color="#E8D97F"/>
<stop offset="0.1775" stop-color="#F6F194"/>
<stop offset="0.2608" stop-color="#F4EE91"/>
<stop offset="0.3194" stop-color="#EFE589"/>
<stop offset="0.3705" stop-color="#E5D57C"/>
<stop offset="0.4173" stop-color="#D8BF69"/>
<stop offset="0.4607" stop-color="#C8A351"/>
<stop offset="0.4911" stop-color="#B98B3C"/>
<stop offset="0.5261" stop-color="#C29A49"/>
<stop offset="0.6417" stop-color="#DEC971"/>
<stop offset="0.7304" stop-color="#EFE68A"/>
<stop offset="0.7811" stop-color="#F6F194"/>
<stop offset="0.805" stop-color="#E3D279"/>
<stop offset="0.8314" stop-color="#D4B863"/>
<stop offset="0.8605" stop-color="#C8A452"/>
<stop offset="0.8935" stop-color="#C09645"/>
<stop offset="0.9335" stop-color="#BB8D3E"/>
<stop offset="1" stop-color="#B98B3C"/>
</linearGradient>
<linearGradient id="paint16_linear_4265_14699" x1="39.5031" y1="50.5463" x2="42.8977" y2="50.5203" gradientUnits="userSpaceOnUse">
<stop stop-color="#B98B3C"/>
<stop offset="0.0308" stop-color="#BC9040"/>
<stop offset="0.0683" stop-color="#C59F4D"/>
<stop offset="0.1091" stop-color="#D3B762"/>
<stop offset="0.152" stop-color="#E8D97F"/>
<stop offset="0.1775" stop-color="#F6F194"/>
<stop offset="0.2608" stop-color="#F4EE91"/>
<stop offset="0.3194" stop-color="#EFE589"/>
<stop offset="0.3705" stop-color="#E5D57C"/>
<stop offset="0.4173" stop-color="#D8BF69"/>
<stop offset="0.4607" stop-color="#C8A351"/>
<stop offset="0.4911" stop-color="#B98B3C"/>
<stop offset="0.5261" stop-color="#C29A49"/>
<stop offset="0.6417" stop-color="#DEC971"/>
<stop offset="0.7304" stop-color="#EFE68A"/>
<stop offset="0.7811" stop-color="#F6F194"/>
<stop offset="0.805" stop-color="#E3D279"/>
<stop offset="0.8314" stop-color="#D4B863"/>
<stop offset="0.8605" stop-color="#C8A452"/>
<stop offset="0.8935" stop-color="#C09645"/>
<stop offset="0.9335" stop-color="#BB8D3E"/>
<stop offset="1" stop-color="#B98B3C"/>
</linearGradient>
</defs>
</svg>
